<svg id="Layer_1" data-name="Layer 1" xmlns="http://www.w3.org/2000/svg" viewBox="0 0 510.51 345.5"><defs><style>.cls-1{fill:#231f20;}.cls-1,.cls-2,.cls-3{fill-rule:evenodd;}.cls-2,.cls-3{fill:none;stroke-linecap:round;stroke-miterlimit:10;stroke-width:18px;}.cls-2{stroke:#f15a29;}.cls-3{stroke:#be1e2d;}</style></defs><title>shark fin_final</title><path class="cls-1" d="M330.66,337.78c10.7-24,24.21-40.74,37-62.76,44-75.49,110.15-172.35,205.33-192.56,11-2.32,56.82-7.31,60.06,7.59,2,9.27-11.86,23-17.14,31.4C584.57,171.68,566.62,239,589.32,304.59c5.38,15.55,47.65,67,60.1,75.19,3.79,2.51-15.1,0-59.64-8.3-27.88-5.22-43.94,2.83-79.25-6.12-31.29-7.93-86.4-15-113.95-17.25C363.23,345.42,326.19,347.79,330.66,337.78Z" transform="translate(-241.6 -79.76)"/><path class="cls-2" d="M279.48,356c23.38-6,47.74-6.66,73.74-8.9,53.73-4.62,107.61,2.48,155.18,12.69,44.26,9.51,89.8,24,147.1,24.23,31.69.15,60.84-5.09,87.61-12.82" transform="translate(-241.6 -79.76)"/><path class="cls-3" d="M250.6,388.23c23.38-6,47.74-6.66,73.75-8.89,53.73-4.62,107.6,2.47,155.17,12.69,44.26,9.51,89.81,24,147.11,24.23,31.68.15,60.84-5.09,87.61-12.82" transform="translate(-241.6 -79.76)"/></svg>